<svg version="1.1" id="Layer_1" xmlns="http://www.w3.org/2000/svg" xmlns:xlink="http://www.w3.org/1999/xlink" x="0px" y="0px"
	 width="100%" viewBox="0 0 466 109" enable-background="new 0 0 466 109" xml:space="preserve">
<path fill="#0866A1" opacity="1.000000" stroke="none" 
	d="
M109.000000,1.000000 
	C228.270035,1.000000 347.540070,1.000000 466.905029,1.000000 
	C466.905029,37.250534 466.905029,73.501404 466.905029,110.000000 
	C347.979218,110.000000 228.958267,110.000000 109.468552,109.749374 
	C109.000053,109.331665 109.000328,109.164581 108.914902,108.588760 
	C108.554794,106.379250 108.047714,104.579216 108.041969,102.777580 
	C107.984169,84.640266 108.005585,66.502686 108.012276,48.365181 
	C108.013672,44.584541 108.046097,40.803905 108.063858,36.805351 
	C108.287468,35.904682 108.511429,35.221924 108.787598,34.039024 
	C108.893204,22.692589 108.946602,11.846294 109.000000,1.000000 
M148.515198,31.476059 
	C144.085114,31.476059 139.655029,31.476059 135.130951,31.476059 
	C135.130951,50.424568 135.130951,68.690002 135.130951,86.796471 
	C149.224106,86.796471 163.224289,87.737144 177.030441,86.504448 
	C188.464478,85.483559 193.943130,73.570648 189.083527,63.064854 
	C187.874741,60.451630 185.640808,58.312599 183.810135,55.864735 
	C189.585052,42.031590 184.336868,33.194241 168.949188,31.822454 
	C162.510101,31.248423 155.991653,31.564646 148.515198,31.476059 
M407.320129,87.477661 
	C416.047424,88.907524 424.517487,88.300438 432.483032,84.057762 
	C433.733032,87.947884 437.040588,88.659950 443.094025,86.705750 
	C443.094025,78.482796 443.524048,70.321419 442.979492,62.225586 
	C442.370483,53.171360 436.731110,47.024426 427.962250,45.285702 
	C417.945953,43.299629 408.208099,44.967999 398.271118,48.382339 
	C399.381287,51.417397 400.378387,54.143341 401.372223,56.860394 
	C419.805969,50.543472 432.584045,54.470871 432.188080,62.405155 
	C430.215637,62.075504 428.278717,61.704811 426.327972,61.433960 
	C418.213318,60.307274 410.082581,59.561279 402.329590,63.097748 
	C394.382477,66.722794 391.970886,75.950256 397.697571,82.045456 
	C399.940948,84.433144 403.527771,85.558571 407.320129,87.477661 
M218.565033,88.057655 
	C224.704971,87.135193 230.844910,86.212730 237.181931,85.260658 
	C239.348648,90.364532 244.046021,86.425362 247.852859,87.559868 
	C247.852859,79.540543 248.202255,72.196442 247.756638,64.900902 
	C247.291504,57.285793 244.732300,50.255337 237.089890,47.010944 
	C225.520416,42.099419 214.134933,44.816113 202.458679,48.361637 
	C203.675995,51.583252 204.652832,54.168465 205.615967,56.717411 
	C224.871475,51.394897 235.030121,53.227291 236.610245,62.539303 
	C234.398621,62.132401 232.331009,61.664009 230.238266,61.382526 
	C222.098740,60.287731 213.946609,59.604706 206.212051,63.262905 
	C201.846130,65.327850 199.133331,68.776741 199.012039,73.799500 
	C198.888245,78.925621 201.019196,83.136375 205.696548,85.118332 
	C209.420700,86.696396 213.633728,87.120758 218.565033,88.057655 
M293.982330,77.672264 
	C283.491486,81.472160 273.493408,79.068886 263.595459,74.799927 
	C262.049622,77.542587 260.701080,79.935143 259.159180,82.670807 
	C271.739685,88.528305 284.118866,89.963860 296.937683,86.067848 
	C298.948029,85.456841 300.894073,84.278419 302.563843,82.971428 
	C307.044342,79.464417 308.683350,74.224953 307.161896,69.214546 
	C305.718903,64.462517 301.674957,61.232101 295.858002,60.985897 
	C291.227753,60.789928 286.568604,61.329979 281.920319,61.484180 
	C279.780853,61.555157 277.572021,61.792515 275.519287,61.361168 
	C274.318054,61.108746 272.650818,59.797714 272.489868,58.761505 
	C272.317444,57.651394 273.377411,55.652435 274.411072,55.193378 
	C276.775513,54.143353 279.495209,53.132278 281.992767,53.295620 
	C287.871490,53.680077 293.704681,54.761116 299.810577,55.595055 
	C300.676941,53.356712 301.611176,50.943050 302.749908,48.001076 
	C292.430542,44.843815 282.459290,42.846252 272.172333,46.105682 
	C269.862488,46.837563 267.616730,48.183041 265.716522,49.712105 
	C261.595917,53.027878 260.098328,57.500053 261.427582,62.648777 
	C262.763885,67.824615 266.759766,70.091972 271.640320,70.897629 
	C274.069885,71.298706 276.602509,71.282951 279.075165,71.168434 
	C283.054596,70.984138 287.026550,70.265846 290.995148,70.313614 
	C296.181976,70.376038 297.356812,72.827950 293.982330,77.672264 
M354.215118,57.738636 
	C360.862701,52.565781 368.195282,52.981857 375.536621,55.557434 
	C378.302979,56.527969 379.846405,56.335915 381.052551,53.643085 
	C381.770355,52.040615 382.765320,50.562305 383.835754,48.675468 
	C373.114227,43.971813 362.643433,42.666485 352.071716,47.056458 
	C341.317596,51.522171 336.689453,62.997746 340.742554,73.990364 
	C346.211182,88.822113 372.175629,93.769554 384.847900,82.302902 
	C383.379730,79.948486 381.901794,77.578430 380.423889,75.208374 
	C380.359558,75.734093 380.295227,76.259819 380.230865,76.785545 
	C373.944336,77.309616 367.478638,79.015816 361.410858,78.096237 
	C350.825500,76.492027 347.619629,67.208611 354.215118,57.738636 
M317.446136,48.912354 
	C317.446136,61.655727 317.446136,74.399101 317.446136,87.206757 
	C321.430969,87.206757 324.653412,87.206757 327.988800,87.206757 
	C327.988800,73.088623 327.988800,59.319904 327.988800,45.141064 
	C325.145233,45.141064 322.476166,44.893803 319.898987,45.272324 
	C318.970184,45.408737 318.262177,47.048580 317.446136,48.912354 
M211.429657,31.673157 
	C207.530762,35.234131 212.498718,37.000729 212.671112,40.158844 
	C221.285568,36.447762 229.400070,32.952061 237.820724,29.324469 
	C236.271698,26.293053 235.024475,23.852245 233.682724,21.226456 
	C226.153275,24.724682 219.088776,28.006887 211.429657,31.673157 
M327.727844,29.628284 
	C325.354736,29.222090 322.874542,28.174244 320.631744,28.548626 
	C316.476318,29.242275 314.828186,33.219185 316.838898,36.432446 
	C318.549133,39.165550 323.643585,40.379574 326.714935,38.476543 
	C330.091400,36.384483 331.040771,33.543446 327.727844,29.628284 
z"/>
<path fill="#0866A1" opacity="1.000000" stroke="none" 
	d="
M108.064217,37.023270 
	C108.046097,40.803905 108.013672,44.584541 108.012276,48.365181 
	C108.005585,66.502686 107.984169,84.640266 108.041969,102.777580 
	C108.047714,104.579216 108.554794,106.379250 108.728485,108.735497 
	C108.390442,109.502449 108.181183,109.738800 108.000000,110.000000 
	C72.381546,110.000000 36.763084,110.000000 1.072314,110.000000 
	C1.072314,73.764107 1.072314,37.528034 1.072314,1.000000 
	C36.687031,1.000000 72.374855,1.000000 108.531342,1.000000 
	C108.946602,11.846294 108.893204,22.692589 108.463486,33.903503 
	C102.388748,30.520889 96.744156,26.687223 90.956963,23.082487 
	C89.354942,22.084612 87.353752,21.329130 85.492699,21.224024 
	C80.852608,20.961967 76.187798,21.137699 71.639610,21.137699 
	C66.794418,29.859629 63.000591,30.140385 56.375904,22.466465 
	C55.970093,21.996380 55.440273,21.256796 54.981281,21.266455 
	C49.369186,21.384567 43.139339,20.141916 38.296497,22.174776 
	C31.257126,25.129662 25.218344,30.468227 18.482237,34.971233 
	C22.537926,40.992470 26.309664,46.592148 30.173975,52.329262 
	C32.420490,51.092983 34.376804,50.016411 37.135727,48.498154 
	C35.981033,65.446777 34.883465,81.556847 33.761616,98.023415 
	C44.284000,98.023415 54.076290,98.023422 63.868580,98.023422 
	C73.623108,98.023422 83.377640,98.023415 93.416779,98.023415 
	C92.912048,89.272835 92.468620,81.156555 91.968933,73.043739 
	C91.478180,65.075844 90.930267,57.111477 90.358597,48.401478 
	C93.231621,50.022381 95.196671,51.131020 97.261772,52.296112 
	C100.990608,47.024170 104.527412,42.023720 108.064217,37.023270 
z"/>
<path fill="#116CA5" opacity="1.000000" stroke="none" 
	d="
M108.250000,110.000000 
	C108.181183,109.738800 108.390442,109.502449 108.814194,109.144226 
	C109.000328,109.164581 109.000053,109.331665 108.999893,109.749374 
	C109.000000,110.000000 108.500000,110.000000 108.250000,110.000000 
z"/>
<path fill="#F9FBFC" opacity="1.000000" stroke="none" 
	d="
M149.012238,31.476086 
	C155.991653,31.564646 162.510101,31.248423 168.949188,31.822454 
	C184.336868,33.194241 189.585052,42.031590 183.810135,55.864735 
	C185.640808,58.312599 187.874741,60.451630 189.083527,63.064854 
	C193.943130,73.570648 188.464478,85.483559 177.030441,86.504448 
	C163.224289,87.737144 149.224106,86.796471 135.130951,86.796471 
	C135.130951,68.690002 135.130951,50.424568 135.130951,31.476059 
	C139.655029,31.476059 144.085114,31.476059 149.012238,31.476086 
M146.378754,76.961090 
	C155.566742,76.943550 164.776566,77.282867 173.931396,76.723106 
	C177.330093,76.515305 178.910889,73.000130 178.609161,69.497856 
	C178.308258,66.005325 176.328369,63.193512 172.768311,63.064060 
	C164.025833,62.746155 155.264008,62.960094 146.189224,62.960094 
	C146.189224,67.453758 146.189224,71.755486 146.378754,76.961090 
M166.296661,53.007992 
	C169.900375,53.026917 173.977921,53.866955 174.194260,48.235577 
	C174.346252,44.278893 172.014297,41.910675 166.625290,41.671890 
	C159.906693,41.374184 153.164871,41.600410 146.390900,41.600410 
	C146.390900,45.640091 146.390900,49.061249 146.390900,53.007992 
	C152.856842,53.007992 159.100632,53.007992 166.296661,53.007992 
z"/>
<path fill="#F7FAFC" opacity="1.000000" stroke="none" 
	d="
M406.911438,87.368271 
	C403.527771,85.558571 399.940948,84.433144 397.697571,82.045456 
	C391.970886,75.950256 394.382477,66.722794 402.329590,63.097748 
	C410.082581,59.561279 418.213318,60.307274 426.327972,61.433960 
	C428.278717,61.704811 430.215637,62.075504 432.188080,62.405155 
	C432.584045,54.470871 419.805969,50.543472 401.372223,56.860394 
	C400.378387,54.143341 399.381287,51.417397 398.271118,48.382339 
	C408.208099,44.967999 417.945953,43.299629 427.962250,45.285702 
	C436.731110,47.024426 442.370483,53.171360 442.979492,62.225586 
	C443.524048,70.321419 443.094025,78.482796 443.094025,86.705750 
	C437.040588,88.659950 433.733032,87.947884 432.483032,84.057762 
	C424.517487,88.300438 416.047424,88.907524 406.911438,87.368271 
M419.116608,78.951172 
	C424.399475,77.848396 429.929810,77.197960 432.876923,70.898819 
	C425.090393,69.949463 417.438232,69.693970 409.808014,69.994865 
	C408.490540,70.046814 406.309967,72.427223 406.264008,73.790634 
	C406.216705,75.192589 408.035583,77.460526 409.498077,77.937073 
	C412.234406,78.828674 415.303284,78.699783 419.116608,78.951172 
z"/>
<path fill="#F8FBFC" opacity="1.000000" stroke="none" 
	d="
M218.097382,88.057465 
	C213.633728,87.120758 209.420700,86.696396 205.696548,85.118332 
	C201.019196,83.136375 198.888245,78.925621 199.012039,73.799500 
	C199.133331,68.776741 201.846130,65.327850 206.212051,63.262905 
	C213.946609,59.604706 222.098740,60.287731 230.238266,61.382526 
	C232.331009,61.664009 234.398621,62.132401 236.610245,62.539303 
	C235.030121,53.227291 224.871475,51.394897 205.615967,56.717411 
	C204.652832,54.168465 203.675995,51.583252 202.458679,48.361637 
	C214.134933,44.816113 225.520416,42.099419 237.089890,47.010944 
	C244.732300,50.255337 247.291504,57.285793 247.756638,64.900902 
	C248.202255,72.196442 247.852859,79.540543 247.852859,87.559868 
	C244.046021,86.425362 239.348648,90.364532 237.181931,85.260658 
	C230.844910,86.212730 224.704971,87.135193 218.097382,88.057465 
M233.086136,70.230499 
	C231.121429,69.922630 229.152985,69.336502 227.192749,69.362709 
	C222.595673,69.424149 217.972687,69.555962 213.427948,70.165001 
	C212.232254,70.325233 210.567062,72.247658 210.423584,73.509354 
	C210.280731,74.765686 211.450912,76.678909 212.613373,77.490395 
	C218.418625,81.542877 233.283432,78.181946 237.470169,71.767159 
	C236.231110,71.313721 235.065445,70.887131 233.086136,70.230499 
z"/>
<path fill="#F2F7FA" opacity="1.000000" stroke="none" 
	d="
M108.063858,36.805355 
	C104.527412,42.023720 100.990608,47.024170 97.261772,52.296112 
	C95.196671,51.131020 93.231621,50.022381 90.358597,48.401478 
	C90.930267,57.111477 91.478180,65.075844 91.968933,73.043739 
	C92.468620,81.156555 92.912048,89.272835 93.416779,98.023415 
	C83.377640,98.023415 73.623108,98.023422 63.868580,98.023422 
	C54.076290,98.023422 44.284000,98.023415 33.761616,98.023415 
	C34.883465,81.556847 35.981033,65.446777 37.135727,48.498154 
	C34.376804,50.016411 32.420490,51.092983 30.173975,52.329262 
	C26.309664,46.592148 22.537926,40.992470 18.482237,34.971233 
	C25.218344,30.468227 31.257126,25.129662 38.296497,22.174776 
	C43.139339,20.141916 49.369186,21.384567 54.981281,21.266455 
	C55.440273,21.256796 55.970093,21.996380 56.375904,22.466465 
	C63.000591,30.140385 66.794418,29.859629 71.639610,21.137699 
	C76.187798,21.137699 80.852608,20.961967 85.492699,21.224024 
	C87.353752,21.329130 89.354942,22.084612 90.956963,23.082487 
	C96.744156,26.687223 102.388748,30.520889 108.411285,34.403645 
	C108.511429,35.221924 108.287468,35.904682 108.063858,36.805355 
M39.602901,41.021450 
	C39.986721,41.039368 40.370544,41.057281 40.807354,41.945240 
	C40.065090,59.003345 39.322826,76.061447 38.576359,93.216217 
	C55.795753,93.216217 72.178062,93.216217 88.742538,93.216217 
	C87.899986,74.840675 87.084183,57.048641 86.265022,39.183300 
	C89.583961,41.723618 92.587189,44.022289 95.897110,46.555702 
	C98.303001,42.874966 100.363716,39.722321 102.724770,36.110199 
	C97.731178,32.928288 92.994781,29.910261 88.058090,26.496908 
	C87.851738,26.669168 87.645386,26.841431 87.308807,27.787159 
	C87.122833,28.942017 86.936867,30.096874 86.750900,31.251732 
	C86.568779,31.226065 86.386658,31.200399 86.204544,31.174732 
	C85.972176,29.428427 85.739807,27.682121 85.484726,25.765120 
	C80.158646,25.954954 75.129944,24.536757 70.912529,29.616735 
	C67.830597,33.329014 60.596798,33.534775 57.270889,30.000301 
	C52.718193,25.162128 47.500698,25.514517 41.572033,25.508921 
	C41.058403,25.932556 40.544777,26.356192 39.309837,26.557486 
	C34.460777,29.730888 29.611719,32.904289 24.513327,36.240868 
	C26.958166,39.827408 29.164354,43.063850 31.515432,46.512844 
	C34.214828,44.535461 36.620564,42.773197 39.602901,41.021450 
z"/>
<path fill="#F7FAFC" opacity="1.000000" stroke="none" 
	d="
M294.319611,77.415459 
	C297.356812,72.827950 296.181976,70.376038 290.995148,70.313614 
	C287.026550,70.265846 283.054596,70.984138 279.075165,71.168434 
	C276.602509,71.282951 274.069885,71.298706 271.640320,70.897629 
	C266.759766,70.091972 262.763885,67.824615 261.427582,62.648777 
	C260.098328,57.500053 261.595917,53.027878 265.716522,49.712105 
	C267.616730,48.183041 269.862488,46.837563 272.172333,46.105682 
	C282.459290,42.846252 292.430542,44.843815 302.749908,48.001076 
	C301.611176,50.943050 300.676941,53.356712 299.810577,55.595055 
	C293.704681,54.761116 287.871490,53.680077 281.992767,53.295620 
	C279.495209,53.132278 276.775513,54.143353 274.411072,55.193378 
	C273.377411,55.652435 272.317444,57.651394 272.489868,58.761505 
	C272.650818,59.797714 274.318054,61.108746 275.519287,61.361168 
	C277.572021,61.792515 279.780853,61.555157 281.920319,61.484180 
	C286.568604,61.329979 291.227753,60.789928 295.858002,60.985897 
	C301.674957,61.232101 305.718903,64.462517 307.161896,69.214546 
	C308.683350,74.224953 307.044342,79.464417 302.563843,82.971428 
	C300.894073,84.278419 298.948029,85.456841 296.937683,86.067848 
	C284.118866,89.963860 271.739685,88.528305 259.159180,82.670807 
	C260.701080,79.935143 262.049622,77.542587 263.595459,74.799927 
	C273.493408,79.068886 283.491486,81.472160 294.319611,77.415459 
z"/>
<path fill="#F7FAFC" opacity="1.000000" stroke="none" 
	d="
M353.929443,57.998337 
	C347.619629,67.208611 350.825500,76.492027 361.410858,78.096237 
	C367.478638,79.015816 373.944336,77.309616 380.230865,76.785545 
	C380.295227,76.259819 380.359558,75.734093 380.423889,75.208374 
	C381.901794,77.578430 383.379730,79.948486 384.847900,82.302902 
	C372.175629,93.769554 346.211182,88.822113 340.742554,73.990364 
	C336.689453,62.997746 341.317596,51.522171 352.071716,47.056458 
	C362.643433,42.666485 373.114227,43.971813 383.835754,48.675468 
	C382.765320,50.562305 381.770355,52.040615 381.052551,53.643085 
	C379.846405,56.335915 378.302979,56.527969 375.536621,55.557434 
	C368.195282,52.981857 360.862701,52.565781 353.929443,57.998337 
z"/>
<path fill="#F1F6FA" opacity="1.000000" stroke="none" 
	d="
M317.449768,48.457344 
	C318.262177,47.048580 318.970184,45.408737 319.898987,45.272324 
	C322.476166,44.893803 325.145233,45.141064 327.988800,45.141064 
	C327.988800,59.319904 327.988800,73.088623 327.988800,87.206757 
	C324.653412,87.206757 321.430969,87.206757 317.446136,87.206757 
	C317.446136,74.399101 317.446136,61.655727 317.449768,48.457344 
z"/>
<path fill="#F4F8FB" opacity="1.000000" stroke="none" 
	d="
M211.726959,31.481125 
	C219.088776,28.006887 226.153275,24.724682 233.682724,21.226456 
	C235.024475,23.852245 236.271698,26.293053 237.820724,29.324469 
	C229.400070,32.952061 221.285568,36.447762 212.671112,40.158844 
	C212.498718,37.000729 207.530762,35.234131 211.726959,31.481125 
z"/>
<path fill="#F3F8FB" opacity="1.000000" stroke="none" 
	d="
M328.013000,29.887123 
	C331.040771,33.543446 330.091400,36.384483 326.714935,38.476543 
	C323.643585,40.379574 318.549133,39.165550 316.838898,36.432446 
	C314.828186,33.219185 316.476318,29.242275 320.631744,28.548626 
	C322.874542,28.174244 325.354736,29.222090 328.013000,29.887123 
z"/>
<path fill="#136DA6" opacity="1.000000" stroke="none" 
	d="
M146.283997,76.509148 
	C146.189224,71.755486 146.189224,67.453758 146.189224,62.960094 
	C155.264008,62.960094 164.025833,62.746155 172.768311,63.064060 
	C176.328369,63.193512 178.308258,66.005325 178.609161,69.497856 
	C178.910889,73.000130 177.330093,76.515305 173.931396,76.723106 
	C164.776566,77.282867 155.566742,76.943550 146.283997,76.509148 
z"/>
<path fill="#116CA5" opacity="1.000000" stroke="none" 
	d="
M165.820541,53.007992 
	C159.100632,53.007992 152.856842,53.007992 146.390900,53.007992 
	C146.390900,49.061249 146.390900,45.640091 146.390900,41.600410 
	C153.164871,41.600410 159.906693,41.374184 166.625290,41.671890 
	C172.014297,41.910675 174.346252,44.278893 174.194260,48.235577 
	C173.977921,53.866955 169.900375,53.026917 165.820541,53.007992 
z"/>
<path fill="#0F6AA4" opacity="1.000000" stroke="none" 
	d="
M418.675201,78.973297 
	C415.303284,78.699783 412.234406,78.828674 409.498077,77.937073 
	C408.035583,77.460526 406.216705,75.192589 406.264008,73.790634 
	C406.309967,72.427223 408.490540,70.046814 409.808014,69.994865 
	C417.438232,69.693970 425.090393,69.949463 432.876923,70.898819 
	C429.929810,77.197960 424.399475,77.848396 418.675201,78.973297 
z"/>
<path fill="#106AA4" opacity="1.000000" stroke="none" 
	d="
M233.492950,70.345520 
	C235.065445,70.887131 236.231110,71.313721 237.470169,71.767159 
	C233.283432,78.181946 218.418625,81.542877 212.613373,77.490395 
	C211.450912,76.678909 210.280731,74.765686 210.423584,73.509354 
	C210.567062,72.247658 212.232254,70.325233 213.427948,70.165001 
	C217.972687,69.555962 222.595673,69.424149 227.192749,69.362709 
	C229.152985,69.336502 231.121429,69.922630 233.492950,70.345520 
z"/>
<path fill="#0A67A2" opacity="1.000000" stroke="none" 
	d="
M41.947456,25.810091 
	C47.500698,25.514517 52.718193,25.162128 57.270889,30.000301 
	C60.596798,33.534775 67.830597,33.329014 70.912529,29.616735 
	C75.129944,24.536757 80.158646,25.954954 85.484726,25.765120 
	C85.739807,27.682121 85.972176,29.428427 86.204544,31.174732 
	C86.386658,31.200399 86.568779,31.226065 86.750900,31.251732 
	C86.936867,30.096874 87.122833,28.942017 87.580421,27.381283 
	C87.852036,26.975407 88.258385,26.892233 88.258385,26.892233 
	C92.994781,29.910261 97.731178,32.928288 102.724770,36.110199 
	C100.363716,39.722321 98.303001,42.874966 95.897110,46.555702 
	C92.587189,44.022289 89.583961,41.723618 86.265022,39.183300 
	C87.084183,57.048641 87.899986,74.840675 88.742538,93.216217 
	C72.178062,93.216217 55.795753,93.216217 38.576359,93.216217 
	C39.322826,76.061447 40.065090,59.003345 40.898155,41.077850 
	C41.308456,35.410336 41.627956,30.610212 41.947456,25.810091 
z"/>
<path fill="#116BA5" opacity="1.000000" stroke="none" 
	d="
M39.026299,41.010933 
	C36.620564,42.773197 34.214828,44.535461 31.515432,46.512844 
	C29.164354,43.063850 26.958166,39.827408 24.513327,36.240868 
	C29.611719,32.904289 34.460777,29.730888 39.618221,27.120522 
	C39.626503,32.126019 39.326401,36.568474 39.026299,41.010933 
z"/>
<path fill="#B9D4E5" opacity="1.000000" stroke="none" 
	d="
M39.314598,41.016190 
	C39.326401,36.568474 39.626503,32.126019 39.978874,27.231693 
	C40.544777,26.356192 41.058403,25.932556 41.759743,25.659506 
	C41.627956,30.610212 41.308456,35.410336 40.871658,40.642830 
	C40.370544,41.057281 39.986721,41.039368 39.314598,41.016190 
z"/>
<path fill="#106AA4" opacity="1.000000" stroke="none" 
	d="
M88.158234,26.694571 
	C88.258385,26.892233 87.852036,26.975407 87.645538,26.994549 
	C87.645386,26.841431 87.851738,26.669168 88.158234,26.694571 
z"/>
</svg>